Motion_pl09
version=1
nRows=12
nColumns=43
inDegrees=yes
endheader
time	pelvis_tilt	pelvis_list	pelvis_rotation	pelvis_tx	pelvis_ty	pelvis_tz	hip_flexion_r	hip_adduction_r	hip_rotation_r	knee_angle_r	ankle_angle_r	subtalar_angle_r	mtp_angle_r	hip_flexion_l	hip_adduction_l	hip_rotation_l	knee_angle_l	ankle_angle_l	subtalar_angle_l	mtp_angle_l	lumbar_extension	lumbar_bending	lumbar_rotation	neck_flexion	neck_lateral_bending	neck_rotation	arm_flex_r	arm_add_r	arm_rot_r	elbow_flex_r	pro_sup_r	wrist_flex_r	wrist_dev_r	hand_finger_flex_r	arm_flex_l	arm_add_l	arm_rot_l	elbow_flex_l	pro_sup_l	wrist_flex_l	wrist_dev_l	hand_finger_flex_l
      2.53750000	      1.11863714	     19.66712740	     87.67559273	     -0.03375815	      0.97541088	      0.27137733	    -24.46094337	     -2.83924020	    -16.61702487	     -7.10927188	    -11.22654081	     11.48243917	     29.67188840	    -27.69803224	     -1.03287018	    -24.05259022	     -1.76777923	     -9.92970471	      6.83630120	     30.68481018	    -42.53736270	     -0.87704819	     -3.93430191	    -29.36812797	     -0.79149677	      2.30553199	    -15.36165730	    -14.58054340	    -22.88320671	     34.09075268	    133.54417672	    -10.75841917	     10.38904784	     28.64923588	    -12.09217089	    -13.17002622	    -29.04669456	     48.08241468	    137.25598982	    -10.13633291	      8.74817019	     63.89528601
      2.54000000	      1.04943841	     19.78752343	     87.85872149	     -0.03385778	      0.97530874	      0.27081692	    -24.68926093	     -2.92827945	    -17.36768073	     -7.15321346	    -10.88614997	     13.00840847	     29.52782556	    -27.79051245	     -1.13932868	    -24.77924657	     -1.98559039	     -9.48739405	      8.74447484	     30.91067773	    -42.53200157	     -0.86652345	     -3.98743671	    -29.41726344	     -0.65781550	      2.18296689	    -15.36615516	    -14.51836417	    -22.30376027	     34.31842915	    131.62023577	    -13.69492218	      9.04877779	     27.73475290	    -11.92788469	    -13.50983240	    -28.70568551	     48.58978525	    135.80068901	     -9.57674415	      9.02640569	     62.85654602
      2.54250000	      1.06666287	     19.76560947	     87.80002097	     -0.03392596	      0.97517384	      0.27083931	    -24.70515934	     -2.94859442	    -17.41539911	     -7.06415890	    -10.85960407	     13.01158747	     29.52382268	    -27.81206060	     -1.13171245	    -24.77954333	     -1.93336468	     -9.47106801	      8.77122173	     30.91391676	    -42.40702753	     -0.85983539	     -3.96879630	    -29.50616632	     -0.67778415	      2.18203924	    -14.96272695	    -14.59788416	    -22.27819029	     34.66561996	    131.57767578	    -13.74801837	      8.97569210	     27.73128031	    -11.61748656	    -13.64878512	    -28.71950815	     48.83489319	    135.77814857	     -9.60223496	      8.99967762	     62.83643650
      2.54500000	      1.07789718	     19.67642629	     87.72480361	     -0.03368702	      0.97470815	      0.27062223	    -24.66342185	     -2.97369290	    -17.46569032	     -6.99327602	    -10.85241523	     13.19149082	     29.48736384	    -27.76013079	     -1.16301229	    -24.79345672	     -1.93814773	     -9.44868139	      8.99762990	     30.93143492	    -42.19693139	     -0.88795325	     -4.01667803	    -29.59140508	     -0.85043217	      2.23135818	    -14.94579332	    -14.58742614	    -22.18362035	     35.64524969	    131.24945879	    -14.16373901	      8.61952498	     27.65612122	    -11.60408458	    -13.77168822	    -28.83165771	     49.47044985	    135.56608288	     -9.66781885	      8.96069685	     62.72829198
      2.54750000	      1.03988230	     19.75775545	     87.80568202	     -0.03401566	      0.97455160	      0.27013467	    -24.85643581	     -3.07180619	    -18.17505339	     -6.95768288	    -10.57051382	     14.47834507	     29.07358128	    -27.88198896	     -1.19883613	    -25.51139488	     -2.00017413	     -9.12923170	     10.71425524	     31.05308025	    -42.13561703	     -0.86302033	     -4.03713551	    -29.69910786	     -0.79142254	      2.19349436	    -14.82287700	    -14.93074233	    -20.64620007	     35.81841006	    128.18084356	    -16.60420733	      8.01851999	     27.44942460	    -11.44946786	    -14.05357155	    -28.35914856	     49.92725350	    134.13671237	     -9.69085839	      9.34267238	     61.68756112
      2.55000000	      1.04799482	     19.75336218	     87.79060458	     -0.03413507	      0.97440705	      0.27013853	    -24.88092221	     -3.09258849	    -18.19564979	     -6.91054511	    -10.53305505	     14.47827832	     29.07317162	    -27.91097189	     -1.20156887	    -25.52397424	     -1.95335163	     -9.09186589	     10.71805756	     31.05650436	    -42.02702832	     -0.84464832	     -4.02857605	    -29.76595825	     -0.79622010	      2.19218636	    -14.42063334	    -14.99250808	    -20.63725429	     36.14839459	    128.15716504	    -16.66021168	      7.94479020	     27.44192846	    -11.10817745	    -14.19819554	    -28.39650797	     50.15311060	    134.11825193	     -9.72511558	      9.31112964	     61.67890690
      2.55250000	      1.04217647	     19.72994199	     87.80800406	     -0.03438315	      0.97406348	      0.27017274	    -24.84355185	     -3.15050764	    -18.20206226	     -6.99165331	    -10.35047889	     14.62712709	     29.04711639	    -27.86842785	     -1.22712899	    -25.52058136	     -2.03684408	     -8.90234196	     10.89619823	     31.08217606	    -41.95152279	     -0.78752070	     -4.09124622	    -29.65463097	     -0.91995210	      2.25169541	    -14.40785171	    -14.99465429	    -20.66143112	     37.15944938	    127.82465985	    -17.25310751	      7.50555849	     27.32532641	    -10.96744223	    -14.18854936	    -28.61411692	     50.77758709	    133.87264751	     -9.87160921	      9.22170179	     61.65179266
      2.55500000	      1.00877058	     19.76402514	     87.88688131	     -0.03435863	      0.97388618	      0.26996468	    -24.90229059	     -3.21482188	    -18.63411626	     -7.08324720	    -10.04488046	     15.46974287	     28.78302395	    -27.88662159	     -1.29721170	    -25.87820969	     -2.16514688	     -8.59867498	     11.89844211	     31.10741361	    -41.86669284	     -0.79699273	     -4.12830903	    -29.72355219	     -0.83481614	      2.15985443	    -14.13936656	    -15.05465701	    -19.99728456	     37.32368621	    126.06663049	    -19.02820593	      6.74811930	     27.16572562	    -10.68578361	    -14.47219812	    -28.38177943	     51.01639161	    133.05607976	    -10.12799150	      9.24800803	     61.58566142
      2.55750000	      1.02209911	     19.74278319	     87.84877743	     -0.03442648	      0.97373637	      0.26999043	    -24.91979526	     -3.24160034	    -18.67259374	     -7.01365430	    -10.01480145	     15.47321070	     28.77947218	    -27.90285873	     -1.29525350	    -25.88219339	     -2.11321698	     -8.57404662	     11.91843533	     31.10908627	    -41.74315027	     -0.78639328	     -4.11241111	    -29.80884014	     -0.84981874	      2.16043893	    -13.74137401	    -15.09731032	    -19.96992335	     37.69940004	    126.03791407	    -19.08411685	      6.65692507	     27.16224478	    -10.36439870	    -14.59029556	    -28.39810165	     51.27407736	    133.03228225	    -10.16100615	      9.21248789	     61.58483284
      2.56000000	      0.97468062	     19.75473228	     87.90822999	     -0.03451434	      0.97334209	      0.26986588	    -24.91042264	     -3.34516655	    -18.93182191	     -7.17942770	     -9.64734577	     16.16308126	     28.57957713	    -27.86778182	     -1.34557959	    -26.10573182	     -2.30882008	     -8.25727315	     12.72640829	     31.11252999	    -41.67558319	     -0.78655443	     -4.16719113	    -29.72852269	     -0.91202014	      2.16527286	    -13.73929119	    -15.17056029	    -19.49779131	     38.46103198	    124.56044231	    -20.46961265	      5.89550776	     27.13655941	    -10.23023328	    -14.73193581	    -28.35395394	     51.84742574	    132.26892445	    -10.42579763	      9.23913550	     61.67056430
      2.56250000	      0.98809493	     19.72850300	     87.87335094	     -0.03460039	      0.97316490	      0.26985238	    -24.92614801	     -3.37154514	    -18.96988136	     -7.09936622	     -9.62524583	     16.16947752	     28.57561866	    -27.88778343	     -1.34084170	    -26.11691361	     -2.24335272	     -8.23506017	     12.74451544	     31.11339436	    -41.54090936	     -0.77480719	     -4.16196911	    -29.81530396	     -0.91210671	      2.16090830	    -13.32690904	    -15.21739457	    -19.47219626	     38.81542367	    124.53722580	    -20.52148332	      5.80753619	     27.13231289	     -9.90972593	    -14.84994789	    -28.35504065	     52.07910178	    132.24906420	    -10.44984445	      9.20583647	     61.67181063
      2.56500000	      0.96983508	     19.62771655	     87.86429414	     -0.03444139	      0.97264932	      0.26963824	    -24.85737789	     -3.41644013	    -18.96727077	     -7.06869952	     -9.60402140	     16.34462309	     28.54767050	    -27.82183726	     -1.35750066	    -26.10867807	     -2.22959487	     -8.20103572	     12.91420270	     31.11557992	    -41.31550725	     -0.79590330	     -4.23374172	    -29.89249456	     -0.99568544	      2.19086521	    -13.28458579	    -15.19689556	    -19.41103984	     39.73772306	    124.31619970	    -20.85469211	      5.41017472	     27.09199122	     -9.82680146	    -14.99256859	    -28.40431605	     52.60989231	    132.07688632	    -10.48833624	      9.13537676	     61.71927046
